<svg xmlns="http://www.w3.org/2000/svg" viewBox="0 0 100 100" role="img" aria-label="Koru spiral">
  <defs>
    <linearGradient id="koruAurora" x1="0%" y1="0%" x2="100%" y2="100%">
      <stop offset="0%"   stop-color="#37E2D5"/>
      <stop offset="50%"  stop-color="#7B5CFF"/>
      <stop offset="100%" stop-color="#FF6B6B"/>
    </linearGradient>
  </defs>
  <!-- Archimedean spiral, 1.6 turns, tight core, gradient stroke -->
  <path fill="none" stroke="url(#koruAurora)" stroke-width="6" stroke-linecap="round" stroke-linejoin="round"
        d="M50.00,50.00 L50.15,50.05 L50.40,50.22 L50.73,50.56 L51.11,51.07 L51.51,51.75 L51.87,52.58 L52.15,53.54 L52.31,54.58 L52.31,55.65 L52.12,56.70 L51.72,57.68 L51.10,58.54 L50.26,59.22 L49.22,59.67 L48.01,59.88 L46.67,59.80 L45.25,59.44 L43.81,58.79 L42.39,57.86 L41.06,56.68 L39.85,55.27 L38.82,53.68 L38.00,51.94 L37.42,50.11 L37.10,48.25 L37.04,46.40 L37.24,44.63 L37.69,42.99 L38.36,41.52 L39.22,40.27 L40.22,39.28 L41.33,38.56 L42.50,38.13 L43.68,38.00 L44.84,38.14 L45.92,38.55 L46.90,39.18 L47.73,39.99 L48.39,40.94 L48.85,41.96 L49.10,43.01 L49.14,44.04 L48.97,44.99 L48.62,45.83 L48.12,46.51 L47.49,47.02 L46.80,47.34 L46.07,47.47 L45.37,47.40 L44.72,47.16 L44.16,46.78 L43.72,46.27 L43.42,45.69 L43.26,45.05 L43.25,44.42 L43.39,43.83 L43.66,43.32 L44.03,42.91 L44.48,42.64 L44.97,42.52 L45.47,42.56 L45.96,42.77 L46.40,43.12 L46.77,43.60 L47.04,44.18 L47.19,44.83 L47.22,45.52 L47.12,46.23 L46.89,46.92 L46.53,47.57 L46.07,48.15 L45.51,48.64 L44.88,49.02 L44.20,49.27 L43.51,49.38 L42.83,49.34"/>
</svg>
